{"title":"Neighbors.2014.BRRip.720p.x264.AAC-PRiSTiNE [P2PDL]","uid":10938089,"size":580005631,"categoryP":"video","categoryS":"hd___movies","magnet":"?xt=urn:btih:b6d5a0af38c48bc5f5fecb5b4fa39085222ddd03&amp;dn=Neighbors.2014.BRRip.720p.x264.AAC-PRiSTiNE+%5BP2PDL%5D&amp;tr=udp%3A%2F%2Ftracker.openbittorrent.com%3A80&amp;tr=udp%3A%2F%2Fopen.demonii.com%3A1337&amp;tr=udp%3A%2F%2Ftracker.coppersurfer.tk%3A6969&amp;tr=udp%3A%2F%2Fexodus.desync.com%3A6969","seeders":7,"leechers":1,"uploader":"ValidusVyto","files":-1,"time":1409460560,"description":" ___    ___       ___   _____    _   _  ___   \n(  _` |  _`  _ (  _`(_   _)_ ( ) ( )(  _` \n| |_) )| (_) )(_)| (_(_) | | (_)| `| || (_(_)\n| ,__/'| ,  / | |`__   | | | || , ` ||  _)_ \n| |    | |  | |( )_) | | | | || |` || (_( )\n(_)    (_) (_)(_)`____) (_) (_)(_) (_)(____/' \n\n\n\nNeighbors.2014.BRRip.720p.x264.AAC-PRiSTiNE\n\n\nGenre: Comedy &lt;a href=&quot;\nhttp://www.imdb.com/title/tt2004420/&quot; rel=&quot;nofollow&quot; target=&quot;_NEW&quot;&gt;\nhttp://www.imdb.com/title/tt2004420/&lt;/a&gt;\n\n\nGeneral\nFormat                         : MPEG-4\nFile size                      : 543 MiB\nDuration                       : 1h 36mn\nOverall bit rate               : 785 Kbps\n\nVideo\nFormat                         : AVC\nBit rate                       : 700 Kbps\nWidth                          : 1 280 pixels\nHeight                         : 536 pixels\nDisplay aspect ratio           : 2.40:1\nFrame rate                     : 23.976 fps\nBit depth                      : 8 bits\nStream size                    : 484 MiB (89%)\nWriting library                : x264 core 142 r2389 956c8d8\n\nAudio\nFormat                         : AAC\nBit rate                       : 80.0 Kbps\nChannel(s)                     : 2 channels\nChannel positions              : Front: L R\nSampling rate                  : 48.0 KHz\nStream size                    : 55.3 MiB (10%)\nLanguage                       : English\n\nSubtitle                       : Yes\n &lt;a href=&quot;\nhttp://someimage.com/l1NSSMD&quot; rel=&quot;nofollow&quot; target=&quot;_NEW&quot;&gt;\nhttp://someimage.com/l1NSSMD&lt;/a&gt; &lt;a href=&quot;\nhttp://someimage.com/ETVGmz3&quot; rel=&quot;nofollow&quot; target=&quot;_NEW&quot;&gt;\nhttp://someimage.com/ETVGmz3&lt;/a&gt; &lt;a href=&quot;\nhttp://someimage.com/A3CyEB8&quot; rel=&quot;nofollow&quot; target=&quot;_NEW&quot;&gt;\nhttp://someimage.com/A3CyEB8&lt;/a&gt; &lt;a href=&quot;\nhttp://someimage.com/XCEFKU8&quot; rel=&quot;nofollow&quot; target=&quot;_NEW&quot;&gt;\nhttp://someimage.com/XCEFKU8&lt;/a&gt; &lt;a href=&quot;\nhttp://someimage.com/ftDDOY6&quot; rel=&quot;nofollow&quot; target=&quot;_NEW&quot;&gt;\nhttp://someimage.com/ftDDOY6&lt;/a&gt; &lt;a href=&quot;\nhttp://someimage.com/pykWe89&quot; rel=&quot;nofollow&quot; target=&quot;_NEW&quot;&gt;\nhttp://someimage.com/pykWe89&lt;/a&gt;\n\n\n----------------------------------------------------------------------------------------------------\n\n\nRecommend to you to use latest version of VLC player. Install K-Lite Codec Pack or shark007 codecs\nin case of any kind of problem in playback (For non-VLC Media Player users). Alternatively, install\nCore AVC codecs, the fastest decoder that there is coupled with Community Center Codec Pack and play\non Windows Media Player Classic. Check sample to be sure.\n\nEncoder Notes: Looking For Early Access To Anything You Can Provide DVDScr, R5, DVDR, BluRay, Direct\nAudio, Music Releases and Seedboxes. We require dedicated servers, so as to do more \nand fast releases of movies.\n\nFind us @ P2PDL","torrent":{"xt":"urn:btih:b6d5a0af38c48bc5f5fecb5b4fa39085222ddd03","amp;dn":"Neighbors.2014.BRRip.720p.x264.AAC-PRiSTiNE+%5BP2PDL%5D","amp;tr":["udp%3A%2F%2Ftracker.openbittorrent.com%3A80","udp%3A%2F%2Fopen.demonii.com%3A1337","udp%3A%2F%2Ftracker.coppersurfer.tk%3A6969","udp%3A%2F%2Fexodus.desync.com%3A6969"],"infoHash":"b6d5a0af38c48bc5f5fecb5b4fa39085222ddd03","infoHashBuffer":{"type":"Buffer","data":[182,213,160,175,56,196,139,197,245,254,203,91,79,163,144,133,34,45,221,3]},"announce":[],"urlList":[]}}